<?xml version="1.0" standalone="no"?>
<!DOCTYPE svg PUBLIC "-//W3C//DTD SVG 20010904//EN"
 "http://www.w3.org/TR/2001/REC-SVG-20010904/DTD/svg10.dtd">
<svg version="1.0" xmlns="http://www.w3.org/2000/svg"
 width="749.000000pt" height="749.000000pt" viewBox="0 0 749.000000 749.000000"
 preserveAspectRatio="xMidYMid meet">
<metadata>
Created by potrace 1.11, written by Peter Selinger 2001-2013
</metadata>
<g transform="translate(0.000000,749.000000) scale(0.100000,-0.100000)"
fill="#000000" stroke="none">
<path d="M5725 6950 c-4 -6 -11 -7 -17 -4 -7 5 -8 2 -3 -6 14 -23 -19 -31 -36
-9 -14 19 -19 20 -60 8 -55 -15 -56 -16 -99 -24 -19 -3 -56 -17 -82 -30 -26
-14 -53 -25 -60 -25 -7 0 -31 -16 -53 -36 -22 -19 -52 -38 -67 -41 -16 -3 -28
-9 -28 -14 0 -5 -7 -5 -17 -2 -12 5 -14 3 -8 -7 5 -9 4 -11 -3 -6 -7 4 -38
-11 -69 -32 -55 -37 -123 -67 -123 -55 0 3 -7 0 -15 -7 -8 -7 -15 -10 -15 -6
0 13 -164 -78 -192 -108 -17 -17 -46 -55 -65 -85 -19 -30 -47 -64 -61 -75 -15
-12 -53 -47 -85 -79 -32 -31 -63 -55 -67 -52 -5 3 -12 1 -15 -5 -5 -8 -11 -7
-21 1 -12 10 -13 9 -8 -4 4 -12 1 -15 -16 -12 -15 3 -23 -3 -30 -20 -5 -14
-12 -25 -14 -25 -3 0 -2 7 1 17 4 11 3 14 -5 9 -7 -4 -12 -15 -12 -24 0 -14
-2 -15 -9 -2 -6 8 -7 18 -4 24 3 5 1 6 -6 2 -6 -4 -8 -12 -5 -18 5 -8 1 -9
-11 -4 -15 5 -16 4 -6 -8 9 -11 9 -16 0 -22 -8 -4 -9 -3 -5 4 10 16 -7 15 -23
0 -11 -11 -12 -10 -6 2 4 8 -6 0 -24 -19 -17 -19 -31 -30 -31 -25 0 6 5 15 12
22 9 9 9 12 0 12 -7 0 -12 -5 -12 -11 0 -5 -4 -7 -10 -4 -7 4 -7 -3 0 -20 5
-14 6 -24 1 -21 -12 8 -42 -4 -36 -14 3 -4 -2 -13 -10 -20 -8 -7 -15 -9 -15
-5 0 4 -8 1 -17 -6 -16 -13 -17 -12 -4 4 8 10 9 17 3 17 -6 0 -14 -9 -17 -20
-4 -11 -11 -18 -16 -15 -5 3 -6 -1 -3 -10 5 -12 2 -14 -12 -8 -17 6 -17 5 -5
-11 8 -9 10 -16 5 -15 -24 4 -45 -2 -38 -12 3 -6 -1 -10 -12 -9 -32 4 -35 1
-23 -22 11 -20 10 -21 -3 -10 -18 15 -37 -2 -33 -30 2 -12 -4 -15 -21 -13 -13
1 -21 -2 -18 -6 3 -5 -1 -9 -8 -9 -9 0 -9 -3 2 -10 13 -8 12 -10 -3 -10 -12 0
-16 -4 -11 -12 4 -7 -3 -4 -16 7 l-24 20 24 -35 24 -35 -24 20 c-13 11 -20 15
-17 8 4 -6 3 -14 -3 -18 -6 -4 -7 -11 -4 -17 4 -6 2 -8 -4 -4 -6 3 -18 -1 -26
-10 -9 -8 -16 -11 -16 -5 0 6 9 15 20 21 11 6 20 15 20 20 0 6 -13 -2 -30 -16
-16 -15 -27 -31 -24 -35 3 -5 -3 -6 -12 -2 -12 4 -15 3 -10 -5 5 -8 1 -10 -10
-5 -13 5 -15 3 -9 -7 6 -10 4 -12 -8 -7 -10 4 -17 2 -17 -4 0 -7 -9 -9 -21 -6
-17 5 -18 3 -7 -10 12 -15 11 -15 -11 -4 -22 12 -27 10 -53 -18 -25 -27 -32
-30 -46 -19 -13 11 -15 10 -10 -9 4 -15 2 -20 -7 -17 -7 3 -16 1 -19 -5 -4 -6
-13 -8 -21 -4 -9 3 -15 -1 -15 -8 0 -9 -3 -10 -8 -4 -12 16 -32 16 -32 -1 0
-8 5 -12 10 -9 6 3 10 1 10 -5 0 -6 -10 -8 -25 -4 -20 5 -25 2 -26 -12 -1 -14
-3 -13 -9 6 -4 14 -8 19 -9 12 -1 -8 -6 -10 -13 -6 -8 5 -7 0 2 -11 15 -19 15
-19 -15 -1 l-30 19 20 -23 20 -23 -22 12 c-18 9 -22 9 -18 -2 4 -8 -3 -13 -17
-14 -18 -2 -19 0 -8 7 11 7 10 9 -8 7 -17 -1 -21 -6 -16 -21 6 -19 6 -19 -10
-3 -19 18 -31 23 -21 8 3 -5 0 -13 -6 -17 -7 -4 -9 -3 -5 4 3 6 2 13 -4 17 -6
4 -7 11 -4 17 5 7 2 8 -5 4 -7 -5 -10 -14 -7 -22 3 -7 0 -16 -6 -20 -7 -5 -8
-2 -3 6 6 10 4 12 -8 7 -9 -3 -19 -1 -23 5 -4 7 -3 8 4 4 7 -4 12 -2 12 3 0
14 -17 14 -25 1 -9 -15 -58 -13 -49 3 4 6 -2 4 -14 -7 -19 -16 -22 -17 -27 -3
-7 15 -21 17 -42 4 -6 -4 -14 -3 -18 3 -8 13 -25 13 -25 -1 0 -5 5 -7 10 -4
16 10 11 -1 -7 -16 -9 -8 -14 -9 -10 -3 4 7 0 15 -9 18 -10 4 -13 2 -8 -7 6
-9 3 -8 -8 1 -14 11 -18 10 -28 -5 -11 -17 -11 -17 -6 0 5 15 2 17 -15 12 -17
-6 -20 -4 -13 6 6 12 5 12 -9 0 -9 -7 -17 -9 -17 -4 0 5 -7 10 -15 10 -11 0
-12 -4 -3 -14 8 -11 7 -12 -6 -7 -9 3 -16 9 -16 13 0 4 -7 8 -15 8 -11 0 -12
-4 -4 -13 7 -8 6 -14 -2 -20 -7 -4 -10 -3 -7 2 3 5 -6 20 -20 34 -18 17 -24
19 -19 8 11 -30 -12 -30 -30 -1 -20 32 -46 43 -36 15 4 -14 3 -13 -10 3 -19
25 -87 29 -80 5 2 -8 -2 -5 -8 8 -13 24 -24 28 -35 10 -5 -7 -3 -8 6 -3 8 5
11 4 6 -3 -3 -6 -19 -9 -34 -7 -15 1 -33 -2 -39 -7 -7 -6 -20 -7 -29 -4 -14 5
-15 4 -5 -8 10 -12 9 -14 -6 -11 -10 1 -17 8 -15 15 1 6 -2 9 -7 5 -6 -3 -7
-13 -4 -21 5 -14 3 -15 -15 -5 -17 9 -20 8 -17 -7 1 -9 8 -16 15 -14 6 1 8 -2
5 -8 -5 -8 -13 -6 -26 6 -11 9 -19 12 -19 6 0 -7 -7 -9 -17 -5 -12 5 -14 3 -8
-8 6 -11 5 -11 -5 -2 -10 9 -19 9 -41 -3 -16 -8 -29 -17 -29 -20 0 -2 13 2 28
10 23 12 29 12 29 1 0 -7 -6 -11 -12 -8 -7 2 -20 -3 -29 -12 -9 -9 -16 -12
-16 -6 0 6 -7 11 -16 11 -8 0 -13 -4 -9 -9 3 -5 1 -12 -4 -15 -5 -4 -13 -1
-17 5 -5 8 -3 9 7 4 8 -5 11 -4 6 0 -12 14 -44 13 -44 -1 0 -7 5 -10 10 -7 6
3 7 1 3 -6 -4 -6 -13 -8 -19 -4 -18 11 -38 12 -31 2 3 -5 9 -7 13 -5 4 3 8 -1
8 -9 0 -10 -4 -12 -12 -5 -7 6 -16 5 -25 -3 -10 -10 -11 -9 -5 2 5 9 3 12 -6
9 -8 -3 -13 -10 -12 -16 1 -6 -9 -9 -22 -7 -14 1 -25 -2 -25 -6 0 -5 -5 -9
-11 -9 -5 0 -7 5 -3 12 5 7 3 8 -5 4 -7 -5 -10 -15 -6 -23 5 -14 3 -14 -12 -2
-15 12 -16 12 -11 -2 5 -12 1 -15 -18 -13 -20 2 -23 0 -14 -11 8 -10 8 -15 -1
-21 -7 -4 -9 -3 -5 4 4 6 -1 10 -13 9 -15 -1 -17 -5 -10 -13 8 -9 5 -11 -10
-7 -12 3 -18 9 -15 14 9 16 -3 10 -17 -8 -12 -15 -12 -16 1 -8 12 6 13 6 2 -6
-8 -9 -15 -10 -20 -4 -9 13 -47 13 -59 1 -5 -5 -2 -6 6 -1 9 5 12 4 7 -3 -4
-6 -13 -9 -20 -6 -8 3 -17 0 -21 -6 -5 -8 -13 -6 -26 6 -17 15 -19 15 -25 0
-3 -9 -12 -16 -19 -16 -7 0 -16 -7 -19 -16 -9 -24 -7 -31 5 -11 5 9 15 17 22
17 8 0 7 -3 -2 -9 -8 -5 -10 -14 -6 -21 5 -8 4 -11 -2 -7 -11 7 -28 -20 -24
-36 1 -5 -4 -5 -10 -1 -9 5 -10 2 -6 -9 3 -9 1 -19 -5 -23 -7 -5 -8 -2 -3 6 6
10 4 12 -9 7 -10 -4 -19 -1 -22 8 -4 8 -10 15 -16 15 -5 0 -6 -5 -2 -12 4 -6
3 -8 -3 -5 -18 11 -63 16 -63 6 0 -5 9 -9 21 -9 11 0 18 -4 14 -10 -3 -5 -13
-6 -23 -3 -14 5 -13 2 3 -11 16 -14 16 -16 3 -12 -9 2 -22 -2 -28 -10 -8 -9
-9 -14 -2 -14 6 0 12 5 14 12 3 8 6 9 11 1 4 -6 -8 -18 -28 -27 -19 -9 -35
-19 -35 -22 0 -3 5 -2 10 1 6 3 10 1 10 -4 0 -6 -6 -11 -14 -11 -8 0 -17 -7
-20 -16 -3 -8 -10 -13 -15 -10 -9 6 -26 -22 -22 -38 1 -5 -4 -4 -12 2 -14 12
-37 -1 -37 -22 0 -5 7 -1 15 10 8 10 15 14 15 7 0 -6 -5 -15 -10 -18 -6 -4 -8
-11 -5 -16 3 -5 -2 -6 -11 -2 -14 5 -16 2 -12 -14 3 -12 0 -20 -7 -20 -7 0
-11 7 -8 16 2 9 -2 5 -10 -8 -8 -14 -12 -32 -9 -40 5 -14 3 -14 -11 -2 -15 12
-17 12 -12 -2 4 -8 1 -18 -6 -23 -7 -4 -10 -3 -5 4 3 6 1 14 -5 18 -7 4 -9 3
-6 -3 4 -6 0 -16 -8 -23 -8 -7 -15 -18 -15 -24 0 -6 5 -4 10 4 6 9 10 10 10 3
0 -6 -5 -15 -10 -18 -6 -4 -8 -11 -5 -16 3 -5 -1 -6 -10 -3 -9 4 -15 3 -14 -2
4 -21 -2 -45 -9 -40 -4 2 -9 -4 -9 -15 -2 -17 1 -18 13 -8 8 6 17 9 21 5 3 -3
2 -6 -3 -6 -6 0 -20 -9 -33 -21 -19 -17 -20 -23 -9 -37 11 -14 10 -15 -6 -9
-16 6 -17 5 -6 -8 11 -13 10 -14 -3 -9 -12 4 -15 0 -13 -19 2 -19 -1 -24 -14
-22 -11 2 -17 -3 -16 -13 0 -9 -4 -16 -10 -15 -7 1 -9 -8 -6 -22 2 -15 9 -22
16 -18 8 5 8 3 0 -8 -14 -17 -14 -49 -1 -46 5 1 12 -4 15 -12 3 -8 0 -11 -7
-7 -7 5 -9 1 -5 -8 3 -9 11 -13 18 -9 6 4 5 -1 -2 -10 -8 -9 -11 -25 -7 -38 6
-16 4 -20 -6 -13 -12 6 -12 5 0 -9 12 -15 11 -17 -3 -17 -9 0 -16 -4 -16 -9 0
-6 8 -8 18 -6 14 2 17 -4 17 -31 -1 -18 -5 -37 -10 -41 -4 -5 -5 -2 -1 5 10
18 1 15 -15 -5 -10 -11 -10 -14 -1 -9 7 4 12 2 12 -4 0 -6 4 -8 10 -5 6 4 7
-2 2 -17 -9 -30 -8 -70 3 -87 5 -10 4 -12 -3 -7 -13 8 -12 -28 1 -40 10 -11 8
-24 -4 -24 -5 0 -7 5 -3 12 4 7 3 8 -4 4 -9 -5 -9 -13 -2 -27 6 -10 8 -19 5
-19 -3 0 -1 -10 6 -21 8 -15 8 -19 0 -15 -6 4 -11 2 -11 -3 0 -6 5 -11 11 -11
8 0 8 -4 0 -13 -8 -10 -6 -23 9 -51 l19 -38 -21 18 c-12 11 -18 14 -15 7 4 -6
3 -14 -2 -17 -5 -3 -7 -14 -4 -25 3 -12 -3 -24 -17 -34 -13 -9 -17 -18 -11
-21 12 -8 3 -36 -11 -36 -6 0 -5 6 2 15 10 12 10 15 -3 15 -11 0 -14 -8 -11
-32 4 -25 2 -29 -6 -18 -9 13 -12 12 -25 -4 -11 -14 -15 -16 -15 -5 0 8 -3 10
-8 4 -10 -14 -55 -39 -47 -26 3 6 1 11 -4 11 -6 0 -11 -4 -11 -9 0 -5 -8 -8
-17 -6 -10 1 -23 -2 -30 -7 -7 -5 -18 -6 -24 -2 -9 5 -10 2 -6 -9 3 -9 1 -19
-5 -23 -6 -4 -8 -3 -4 4 13 22 -13 22 -30 0 -9 -13 -14 -16 -11 -7 3 9 -1 16
-8 16 -8 0 -14 -3 -13 -6 2 -19 -4 -22 -17 -11 -9 7 -18 10 -22 6 -3 -3 -1 -6
5 -6 7 0 12 -4 12 -10 0 -5 -7 -6 -17 -3 -11 4 -14 3 -9 -5 4 -7 2 -12 -3 -12
-6 0 -11 5 -11 10 0 6 -4 10 -10 10 -5 0 -7 -6 -4 -14 4 -9 -2 -13 -20 -11
-14 2 -30 -3 -37 -11 -6 -7 -16 -11 -23 -7 -6 4 -5 0 2 -9 12 -14 10 -16 -10
-11 -19 4 -20 3 -8 -7 12 -9 10 -11 -12 -7 -18 3 -25 0 -22 -8 3 -7 -2 -15
-10 -18 -9 -4 -16 -13 -16 -22 0 -8 -4 -15 -10 -15 -5 0 -10 5 -10 12 0 6 -3
8 -6 5 -4 -4 -1 -14 7 -24 12 -15 12 -16 -2 -11 -9 4 -20 -2 -28 -14 -10 -16
-10 -18 0 -13 8 5 10 4 5 -3 -4 -7 -17 -12 -29 -13 -12 0 -16 -3 -9 -6 9 -3 4
-10 -13 -19 -15 -8 -31 -11 -36 -8 -5 3 -6 -1 -4 -8 8 -20 -40 -62 -61 -54
-14 5 -15 4 -5 -8 9 -11 9 -16 0 -22 -8 -4 -9 -3 -5 4 4 7 1 12 -9 12 -9 0
-13 -4 -10 -10 3 -6 1 -10 -5 -10 -7 0 -9 -7 -6 -17 6 -14 3 -14 -15 3 -12 10
-19 13 -15 7 4 -7 2 -13 -4 -13 -6 0 -9 -4 -6 -8 3 -4 -7 -8 -22 -8 -18 1 -26
-4 -24 -13 2 -8 -3 -11 -12 -8 -11 4 -13 1 -9 -10 5 -13 3 -14 -18 -3 -23 13
-23 12 -9 -5 14 -17 14 -18 -7 -6 -22 11 -28 8 -24 -13 1 -5 -6 -6 -15 -2 -12
4 -15 2 -11 -9 7 -17 -9 -30 -18 -15 -3 5 -11 10 -16 10 -6 0 -8 -4 -4 -9 7
-12 -28 -23 -49 -15 -9 3 -16 1 -16 -6 0 -6 4 -8 10 -5 5 3 10 1 10 -4 0 -6
-6 -11 -12 -11 -7 -1 -31 -9 -53 -20 -22 -11 -46 -19 -52 -20 -7 0 -13 -8 -14
-17 0 -10 -3 -13 -6 -6 -3 10 -9 10 -26 0 -12 -7 -25 -16 -29 -22 -5 -6 -8 -4
-8 5 -1 11 -4 10 -15 -4 -8 -11 -15 -17 -15 -13 0 4 -9 3 -20 -3 -20 -11 -20
-21 -20 -636 0 -544 2 -627 15 -641 8 -8 12 -19 9 -25 -4 -7 -2 -8 5 -4 6 4 9
13 5 19 -3 7 0 5 8 -3 14 -16 62 -15 53 1 -9 13 9 11 24 -4 10 -10 11 -9 6 5
-5 13 -2 16 13 13 13 -2 19 2 18 13 0 10 5 16 13 14 23 -5 61 7 61 19 0 8 -6
7 -18 -2 -14 -11 -15 -11 -5 1 12 13 30 19 60 22 6 1 9 8 5 16 -3 10 -1 13 6
8 7 -4 12 -2 12 4 0 7 7 9 16 6 8 -3 12 -2 9 4 -3 6 -1 10 5 10 6 0 8 5 4 12
-4 7 -3 8 5 4 6 -4 18 0 27 8 8 9 12 16 8 16 -4 0 6 10 22 23 16 12 41 35 56
51 16 16 28 26 28 22 0 -3 8 2 18 11 11 10 17 21 15 26 -2 4 3 7 11 7 9 0 16
4 16 9 0 12 45 40 72 45 13 2 22 9 20 15 -1 8 3 9 15 3 10 -5 23 -7 30 -5 7 2
21 -1 32 -6 14 -8 22 -8 27 1 4 6 3 8 -3 5 -6 -4 -19 0 -29 9 -18 15 -18 15 1
6 30 -15 37 -15 47 0 8 10 9 9 4 -4 -4 -15 0 -16 27 -11 18 3 37 10 43 14 6 5
15 5 19 1 5 -4 5 -1 1 6 -6 11 -11 11 -24 0 -15 -12 -16 -11 -4 4 8 9 19 15
26 12 7 -3 19 3 27 13 13 17 13 17 -6 3 -18 -14 -19 -14 -7 1 7 9 23 15 38 13
21 -2 23 0 13 12 -10 12 -9 13 6 8 13 -5 16 -4 11 4 -11 19 9 14 28 -7 10 -10
14 -25 10 -35 -7 -19 14 -66 29 -66 6 0 2 10 -9 22 -18 20 -16 20 16 -3 19
-13 37 -25 39 -27 3 -1 -1 -8 -9 -15 -9 -8 -11 -8 -6 0 3 6 3 14 -2 17 -5 3
-9 -2 -9 -11 0 -9 9 -18 19 -21 18 -4 18 -5 1 -19 -17 -14 -17 -14 0 -9 16 5
16 4 1 -19 -9 -14 -21 -22 -27 -18 -6 3 -7 1 -3 -6 4 -6 11 -9 16 -6 5 3 12 0
16 -6 5 -8 3 -9 -6 -4 -10 6 -12 4 -6 -10 5 -14 4 -15 -7 -7 -10 8 -13 6 -14
-9 -1 -11 2 -17 7 -14 6 3 7 -1 3 -10 -4 -12 -8 -13 -13 -5 -10 15 -21 15 -31
-2 -7 -10 -9 -9 -9 5 0 10 -4 16 -10 12 -5 -3 -6 -13 -3 -23 6 -16 6 -16 -11
0 -14 15 -20 15 -37 5 -10 -6 -15 -13 -9 -15 5 -2 10 -8 10 -14 0 -6 -8 -7
-17 -4 -10 4 -14 4 -11 0 4 -4 2 -16 -4 -28 -10 -19 -10 -20 6 -7 14 12 16 12
10 -4 -6 -14 -4 -16 7 -10 12 8 12 6 0 -8 -11 -14 -11 -20 -1 -33 8 -8 9 -14
4 -13 -16 4 -44 -13 -38 -22 3 -5 0 -9 -5 -9 -6 0 -11 -7 -11 -15 0 -8 6 -15
13 -15 9 0 9 -2 -1 -9 -10 -6 -13 -28 -10 -79 1 -39 1 -69 -1 -67 -2 3 -12 0
-22 -5 -14 -8 -21 -6 -30 11 -9 17 -8 20 2 14 8 -5 10 -4 5 3 -4 7 -14 12 -23
12 -13 0 -14 2 -2 18 13 15 12 16 -3 3 -10 -7 -15 -18 -11 -24 4 -7 -1 -8 -13
-4 -18 7 -18 7 0 -8 11 -8 15 -15 9 -15 -6 0 -14 -7 -17 -16 -4 -10 -2 -13 7
-7 18 11 38 13 31 2 -3 -5 -9 -7 -14 -4 -12 8 -29 -56 -20 -75 11 -22 1 -40
-27 -51 -14 -5 -27 -18 -30 -28 -3 -11 -14 -22 -25 -24 -11 -3 -17 -10 -13
-16 3 -6 2 -11 -3 -11 -25 0 -101 -197 -86 -221 5 -8 3 -9 -6 -4 -10 6 -12 3
-7 -14 4 -18 2 -21 -10 -17 -12 5 -13 3 -6 -6 10 -14 11 -28 2 -43 -4 -5 -9
-23 -13 -38 -4 -15 -10 -25 -15 -22 -5 2 -12 -2 -15 -11 -4 -10 -2 -13 7 -9 6
4 3 -1 -7 -9 -11 -9 -16 -16 -11 -16 5 0 4 -5 -3 -12 -7 -7 -12 -20 -12 -30 0
-9 -27 -100 -59 -202 -33 -102 -61 -198 -63 -213 -1 -15 -6 -30 -9 -33 -4 -3
-8 -18 -10 -35 -2 -16 -7 -35 -12 -42 -5 -6 -3 -14 4 -19 9 -5 7 -10 -7 -15
-16 -6 -16 -8 -2 -8 11 -1 15 -6 12 -16 -4 -8 -11 -12 -18 -8 -8 4 -8 3 0 -6
15 -16 -6 -98 -46 -186 -16 -35 -30 -80 -32 -99 -1 -20 -6 -36 -11 -36 -4 0
-6 -4 -2 -9 3 -5 -4 -25 -16 -45 -22 -38 -20 -49 13 -67 16 -9 19 -8 12 3 -6
10 -5 11 7 1 18 -14 6059 -16 6059 -2 0 5 9 9 19 9 14 0 18 6 15 23 -2 12 -2
16 2 10 3 -7 10 -13 15 -13 6 0 7 5 3 12 -5 8 -2 9 9 5 9 -3 16 -3 16 1 -4 22
2 42 11 37 6 -3 10 -1 10 5 0 6 3 9 8 7 4 -3 16 5 27 16 11 11 14 17 8 13 -9
-5 -11 -2 -7 8 4 10 1 16 -7 16 -7 0 -9 3 -6 6 4 4 13 1 22 -6 11 -9 15 -9 15
-1 0 7 5 9 13 5 7 -5 6 0 -3 11 -14 17 -13 18 4 12 13 -5 17 -3 13 7 -7 18 28
50 47 43 10 -4 13 -1 9 9 -3 8 1 14 8 14 11 0 11 3 -1 11 -12 9 -11 10 7 6 20
-5 22 -3 11 16 -10 20 -10 21 6 8 15 -13 17 -12 12 12 -3 15 0 27 6 27 5 0 8
-6 5 -14 -3 -8 0 -17 7 -19 9 -4 11 2 8 19 -2 13 0 24 7 24 5 0 8 7 5 15 -4 8
-1 15 6 15 6 0 8 -4 5 -10 -9 -15 4 -12 22 5 8 8 20 12 26 8 7 -4 6 1 -2 10
-12 16 -8 22 13 18 5 -1 6 5 3 13 -4 10 0 14 14 11 16 -3 17 -1 9 14 -7 15 -6
18 8 17 9 0 16 5 14 12 -1 7 8 12 20 12 19 0 20 2 8 11 -12 9 -11 10 6 6 25
-5 52 32 39 53 -6 9 -2 9 15 0 12 -7 20 -8 17 -3 -3 5 3 17 14 26 11 10 17 22
14 27 -3 6 1 7 9 4 9 -3 16 -1 16 6 0 6 5 8 10 5 6 -3 10 1 10 9 0 8 5 18 12
22 7 4 8 3 4 -4 -5 -8 -2 -10 8 -6 9 3 14 9 12 13 -3 4 0 13 5 21 8 13 10 13
20 0 10 -13 10 -13 6 0 -3 9 2 25 10 35 12 17 15 18 23 5 7 -10 8 -2 5 25 -3
27 -2 35 4 25 5 -8 8 -17 5 -21 -6 -10 24 -5 33 6 4 4 2 5 -4 1 -9 -5 -12 0
-11 17 1 16 7 23 15 20 7 -3 13 0 13 7 0 6 6 8 13 4 6 -4 1 5 -13 20 -16 18
-19 25 -8 21 10 -4 16 -1 15 7 -2 44 4 57 21 52 9 -3 6 1 -7 9 -18 11 -20 15
-8 20 8 3 20 0 26 -6 9 -9 10 -7 5 8 -7 17 -5 18 8 8 12 -11 18 -9 34 9 10 12
13 18 7 14 -7 -4 -13 -2 -13 3 0 6 6 11 14 11 8 0 12 9 11 24 -3 19 1 23 19
19 12 -3 17 -1 11 4 -5 4 -10 18 -11 30 0 18 2 20 13 11 11 -9 12 -7 7 7 -5
11 -3 16 2 12 6 -3 11 4 11 16 2 15 0 18 -6 9 -7 -11 -9 -11 -14 2 -4 9 -1 15
6 13 7 -1 13 11 15 28 2 16 9 33 15 37 9 6 8 8 -2 8 -11 0 -11 3 0 17 8 9 9
14 3 10 -10 -6 -11 5 -5 47 0 5 7 5 14 0 7 -5 4 -1 -6 9 -16 14 -17 17 -3 17
12 0 14 5 6 25 -7 18 -6 23 3 19 7 -2 13 4 14 16 1 11 -3 20 -8 20 -6 0 -8 -4
-5 -8 3 -5 -2 -9 -10 -9 -10 0 -8 7 8 25 13 14 17 22 11 18 -8 -4 -13 -2 -13
6 0 9 -3 9 -10 -2 -7 -11 -8 -9 -6 11 1 13 6 30 10 37 4 7 2 12 -3 12 -15 0
-14 47 1 52 7 3 5 7 -6 11 -9 4 -15 3 -11 -2 3 -5 1 -12 -4 -15 -10 -7 -9 13
2 31 5 8 1 11 -14 8 -18 -4 -19 -2 -8 13 7 9 10 14 5 10 -4 -4 -18 4 -31 18
-16 18 -25 21 -28 12 -4 -10 -8 -10 -16 2 -5 8 -7 19 -4 25 4 5 2 7 -2 2 -5
-4 -17 1 -28 10 -11 10 -17 12 -13 6 11 -19 -5 -16 -21 5 -8 10 -11 11 -7 2 7
-13 5 -13 -9 -1 -18 14 -24 37 -8 26 5 -3 13 -1 16 5 4 6 1 9 -7 8 -8 -2 -13
7 -12 29 0 24 -3 30 -15 26 -11 -3 -10 0 3 11 15 12 16 16 5 16 -12 0 -12 2 1
10 8 5 10 10 4 10 -6 0 -11 7 -11 15 0 10 4 12 12 5 9 -8 12 -3 9 19 -2 19 2
31 12 35 13 5 12 9 -3 33 -10 15 -13 24 -6 20 27 -17 16 61 -13 91 -17 17
-123 69 -157 77 -15 4 -30 11 -33 16 -3 5 -10 7 -15 3 -5 -3 -16 0 -24 6 -8 7
-15 9 -15 6 0 -4 -8 -2 -17 3 -10 5 -31 11 -48 14 -16 3 -45 10 -62 16 -18 5
-33 7 -33 4 0 -3 -6 -1 -13 5 -7 6 -24 13 -37 15 -20 4 -60 12 -110 22 -3 1
-18 4 -35 8 -54 12 -205 31 -317 40 -16 1 -28 6 -28 11 0 4 -8 5 -17 2 -10 -3
-5 5 12 19 l30 25 2 147 c3 163 11 205 80 403 70 200 133 391 169 512 19 65
42 131 52 147 47 79 96 157 102 161 4 3 13 16 20 29 7 14 17 30 22 35 22 26
161 221 233 326 146 214 155 228 157 253 1 14 5 24 9 21 4 -2 10 3 13 12 3 8
2 12 -4 9 -6 -3 -10 -1 -10 4 0 6 7 11 16 11 13 0 14 3 5 14 -10 12 -8 17 8
26 18 9 20 14 9 33 -10 20 -10 21 5 9 14 -12 15 -11 11 12 -3 18 0 26 10 26 8
0 18 5 21 10 4 6 1 9 -6 8 -6 -2 -14 3 -17 11 -2 8 0 11 6 7 6 -3 13 3 17 14
3 11 12 20 18 20 7 0 6 4 -3 10 -23 14 -5 23 22 10 19 -9 21 -9 8 2 -18 16
-26 43 -9 32 8 -5 10 -2 6 8 -3 10 3 19 19 27 22 10 29 22 25 44 -1 5 3 6 9 2
6 -3 8 -11 5 -16 -3 -5 2 -6 11 -2 10 4 15 2 11 -3 -3 -6 3 -11 14 -11 18 -2
18 0 -3 18 -13 11 -17 17 -10 14 8 -4 20 2 29 14 12 19 17 20 31 9 13 -11 14
-11 8 0 -4 7 -2 20 6 30 12 16 11 16 -6 2 -18 -14 -19 -14 -8 7 17 31 15 38
-5 22 -10 -7 -8 -2 5 13 17 19 20 28 11 33 -7 5 -10 4 -6 -2 3 -5 0 -10 -8
-10 -13 0 -13 3 0 17 8 9 14 19 13 21 -2 2 2 -2 8 -9 9 -10 12 -7 12 13 0 14
-5 22 -11 18 -6 -3 -7 -1 -3 5 4 7 14 12 23 12 13 0 13 3 3 15 -7 9 -10 18 -6
22 3 3 6 2 6 -4 0 -5 7 -10 15 -10 11 0 12 4 3 14 -8 11 -7 12 6 7 9 -3 16 -2
16 4 0 6 -6 12 -12 15 -7 2 -10 8 -6 12 4 4 14 2 22 -4 13 -11 15 -9 11 8 -2
12 1 21 6 21 6 0 7 5 4 10 -6 9 8 14 28 11 4 0 7 4 7 10 0 6 -10 8 -22 5 -13
-3 -17 -3 -10 0 6 3 10 9 7 14 -3 4 3 14 13 21 16 13 16 13 2 -6 -14 -18 -14
-19 2 -6 14 11 15 17 6 35 -10 19 -10 20 6 7 14 -12 16 -12 10 4 -6 14 -4 16
7 10 8 -5 5 2 -5 14 -16 17 -16 20 -4 16 9 -4 19 -1 24 6 4 8 3 10 -4 5 -18
-11 -14 5 6 28 l17 20 -30 -19 c-27 -17 -29 -17 -15 -1 8 10 15 25 16 34 3 18
25 33 38 25 5 -4 6 -1 2 6 -5 7 -15 10 -25 7 -14 -6 -15 -5 0 6 9 7 14 19 11
27 -3 9 0 11 8 6 8 -5 11 -4 7 1 -3 6 -2 16 3 24 5 9 4 20 -3 29 -9 12 -9 13
1 7 9 -5 12 3 12 29 0 26 3 34 13 29 8 -5 8 -2 -2 9 -9 11 -10 17 -2 17 12 0
9 192 -4 260 -7 34 -54 153 -55 137 0 -4 -9 -3 -20 3 -11 6 -20 16 -19 23 0 9
2 9 6 0 2 -7 8 -13 13 -13 5 0 2 13 -6 30 -11 21 -20 27 -32 23 -15 -6 -15 -5
-3 11 13 15 12 18 -8 23 -16 4 -19 9 -11 18 7 9 5 16 -7 26 -9 8 -14 9 -10 2
4 -6 3 -14 -2 -17 -11 -7 -9 13 3 33 6 9 5 12 -1 8 -6 -4 -16 0 -23 8 -7 8
-16 13 -20 10 -4 -3 -11 2 -14 11 -3 8 -10 12 -16 9 -6 -4 -7 1 -3 12 6 16 5
16 -11 4 -15 -12 -17 -12 -14 0 2 8 -4 13 -14 13 -10 -1 -18 2 -18 8 0 5 -4 7
-9 3 -5 -3 -13 0 -17 6 -4 7 -3 9 4 5 6 -3 14 -2 17 4 4 6 3 10 -2 9 -21 -4
-34 2 -27 13 4 7 3 8 -5 4 -6 -4 -9 -12 -6 -17 4 -5 1 -9 -4 -9 -6 0 -11 9
-11 20 0 11 -5 20 -11 20 -5 0 -7 -5 -3 -12 4 -7 3 -8 -4 -4 -6 4 -8 14 -5 23
4 10 2 14 -4 10 -6 -4 -9 3 -8 18 2 17 -1 22 -11 18 -8 -3 -14 0 -14 6 0 6 -9
11 -19 11 -11 0 -27 7 -35 16 -10 9 -16 11 -16 4 0 -7 -6 -5 -16 4 -17 18 -28
21 -19 6 3 -6 -1 -7 -9 -4 -9 3 -14 9 -12 13 2 3 -10 7 -27 7 -96 5 -123 8
-129 18 -5 7 -8 6 -8 -4 0 -13 -1 -13 -10 0 -9 13 -10 13 -10 0 -1 -9 -6 -6
-16 10 l-15 25 5 -24 5 -23 -24 22 c-15 14 -25 18 -30 11 -6 -11 1 -15 18 -12
5 1 6 -3 2 -8 -3 -6 -12 -8 -20 -5 -15 6 -15 -12 -1 -35 7 -11 5 -13 -7 -8
-11 4 -14 2 -10 -9 3 -7 0 -14 -6 -14 -6 0 -11 5 -11 11 0 5 -6 7 -12 3 -8 -5
-7 0 2 11 12 15 12 17 1 10 -11 -6 -13 -4 -7 10 6 16 4 16 -10 4 -16 -13 -16
-12 -4 10 11 21 10 23 -3 18 -12 -4 -14 -2 -10 10 3 8 0 19 -8 24 -12 7 -12 9
1 9 11 0 12 2 3 8 -7 4 -13 22 -15 40 -1 18 -6 32 -11 32 -5 0 -3 8 4 17 8 9
9 14 3 10 -17 -10 -35 37 -21 53 9 10 9 11 0 6 -8 -4 -13 -2 -13 6 0 9 -3 9
-10 -2 -5 -8 -10 -10 -10 -4 0 5 5 15 12 22 9 9 9 12 -2 13 -8 1 -19 1 -23 0
-5 -1 -6 3 -2 9 3 6 11 8 16 5 5 -4 4 5 -3 19 -6 14 -16 26 -21 26 -5 0 -3 -8
4 -17 13 -16 12 -17 -4 -4 -12 9 -14 17 -7 26 7 8 5 18 -6 31 -14 18 -15 18
-4 -3 17 -36 3 -27 -17 10 -16 31 -18 36 -21 65 -1 7 -6 10 -12 7 -10 -6 -15
9 -10 30 1 6 -1 7 -5 3 -4 -4 -14 0 -22 8 -9 8 -22 13 -30 10 -8 -3 -11 -1 -8
4 3 6 1 10 -5 10 -6 0 -8 5 -5 10 6 10 -7 14 -34 10 -9 -1 -12 4 -8 14 3 8 1
18 -5 22 -6 4 -8 3 -5 -2 3 -6 2 -16 -4 -24 -7 -12 -9 -12 -9 3 0 10 -4 16 -9
12 -5 -3 -13 -1 -16 5 -5 8 -12 7 -23 -2 -12 -10 -14 -10 -8 0 4 7 1 12 -9 12
-10 0 -14 5 -10 13 4 6 -1 3 -9 -7 -16 -20 -21 -12 -16 24 1 9 -6 5 -17 -9
-15 -18 -20 -20 -20 -8 0 9 5 13 10 10 6 -3 7 -1 3 6 -4 6 -11 9 -16 6 -5 -3
-11 -1 -15 5 -3 5 -12 10 -18 10 -7 0 -6 -4 3 -10 9 -6 10 -10 3 -10 -12 0
-28 19 -28 34 0 5 -7 11 -15 13 -12 4 -12 3 -1 -5 8 -6 9 -12 3 -16 -6 -3 -13
-2 -17 4 -4 6 -12 7 -18 3 -7 -4 -6 0 2 10 18 22 7 22 -15 0 -16 -16 -16 -16
-10 3 4 14 2 21 -9 22 -8 1 -22 3 -30 4 -9 1 -14 7 -11 15 4 9 -1 9 -19 -3
-14 -9 -25 -12 -25 -6 0 6 5 12 12 14 7 3 5 7 -6 11 -10 4 -15 3 -11 -3 4 -6
-5 -10 -20 -10 -14 0 -24 4 -21 9 7 11 -21 8 -31 -4 -4 -4 -2 -5 6 0 10 6 12
4 7 -4 -5 -8 -12 -9 -19 -3 -7 6 -27 9 -44 7 -18 -1 -30 1 -27 6 3 5 3 9 0 9
-3 0 -8 -5 -11 -10z m-1660 -988 c-3 -3 -11 0 -18 7 -9 10 -8 11 6 5 10 -3 15
-9 12 -12z m-35 -32 c0 -5 -2 -10 -4 -10 -3 0 -8 5 -11 10 -3 6 -1 10 4 10 6
0 11 -4 11 -10z m3310 -40 c0 -5 -5 -10 -11 -10 -5 0 -7 5 -4 10 3 6 8 10 11
10 2 0 4 -4 4 -10z m-3606 -168 c2 -4 -4 -9 -15 -9 -11 -1 -17 2 -14 8 7 11
22 12 29 1z m-964 -86 c0 -2 -7 -7 -16 -10 -8 -3 -12 -2 -9 4 6 10 25 14 25 6z
m-145 -15 c3 -5 2 -12 -3 -15 -5 -3 -9 1 -9 9 0 17 3 19 12 6z m4795 -285 c0
-2 -8 -10 -17 -17 -16 -13 -17 -12 -4 4 13 16 21 21 21 13z m-5895 -345 c3 -5
2 -12 -3 -15 -5 -3 -9 1 -9 9 0 17 3 19 12 6z m-115 -195 c0 -2 -7 -7 -16 -10
-8 -3 -12 -2 -9 4 6 10 25 14 25 6z m5687 -111 c0 -8 -4 -12 -9 -9 -5 3 -6 10
-3 15 9 13 12 11 12 -6z m-5752 -94 c-6 -5 -25 10 -25 20 0 5 6 4 14 -3 8 -7
12 -15 11 -17z m5 -601 c0 -5 -2 -10 -4 -10 -3 0 -8 5 -11 10 -3 6 -1 10 4 10
6 0 11 -4 11 -10z m-446 -248 c3 -5 -1 -9 -9 -9 -8 0 -12 4 -9 9 3 4 7 8 9 8
2 0 6 -4 9 -8z m-419 -350 c-3 -3 -11 0 -18 7 -9 10 -8 11 6 5 10 -3 15 -9 12
-12z m485 -1016 c0 -11 -19 -15 -25 -6 -3 5 1 10 9 10 9 0 16 -2 16 -4z m-60
-306 c0 -5 -5 -10 -11 -10 -5 0 -7 5 -4 10 3 6 8 10 11 10 2 0 4 -4 4 -10z
m6190 -462 c0 -5 -7 -3 -15 6 -8 8 -15 18 -15 22 0 3 7 1 15 -6 8 -7 15 -17
15 -22z m57 -33 c0 -8 -4 -12 -9 -9 -5 3 -6 10 -3 15 9 13 12 11 12 -6z
m-6447 -9 c0 -2 -7 -7 -16 -10 -8 -3 -12 -2 -9 4 6 10 25 14 25 6z m6420 -610
c0 -3 -4 -8 -10 -11 -5 -3 -10 -1 -10 4 0 6 5 11 10 11 6 0 10 -2 10 -4z m-82
-71 c-3 -3 -9 2 -12 12 -6 14 -5 15 5 6 7 -7 10 -15 7 -18z m-273 -355 c-3 -5
-12 -10 -18 -10 -7 0 -6 4 3 10 19 12 23 12 15 0z m-385 -400 c0 -5 -5 -10
-11 -10 -5 0 -7 5 -4 10 3 6 8 10 11 10 2 0 4 -4 4 -10z"/>
<path d="M6427 6649 c7 -7 15 -10 18 -7 3 3 -2 9 -12 12 -14 6 -15 5 -6 -5z"/>
<path d="M4180 6084 c0 -8 5 -12 10 -9 6 4 8 11 5 16 -9 14 -15 11 -15 -7z"/>
<path d="M3599 5673 c-13 -16 -12 -17 4 -4 16 13 21 21 13 21 -2 0 -10 -8 -17
-17z"/>
<path d="M2840 5611 c0 -6 4 -13 10 -16 6 -3 7 1 4 9 -7 18 -14 21 -14 7z"/>
<path d="M1920 5390 c-8 -5 -12 -12 -9 -15 4 -3 12 1 19 10 14 17 11 19 -10 5z"/>
<path d="M1810 5310 c0 -5 5 -10 11 -10 5 0 7 5 4 10 -3 6 -8 10 -11 10 -2 0
-4 -4 -4 -10z"/>
<path d="M7386 5222 c-3 -5 1 -9 9 -9 8 0 12 4 9 9 -3 4 -7 8 -9 8 -2 0 -6 -4
-9 -8z"/>
<path d="M7180 4708 c-12 -22 -12 -22 6 -6 10 10 15 20 12 24 -4 3 -12 -5 -18
-18z"/>
<path d="M1323 4415 c0 -8 4 -12 9 -9 5 3 6 10 3 15 -9 13 -12 11 -12 -6z"/>
<path d="M607 3510 c-9 -11 -13 -20 -7 -20 5 0 14 9 20 20 6 11 9 20 8 20 -2
0 -11 -9 -21 -20z"/>
<path d="M853 1955 c0 -8 4 -12 9 -9 5 3 6 10 3 15 -9 13 -12 11 -12 -6z"/>
<path d="M6470 215 c-10 -12 -10 -15 2 -15 8 0 15 7 15 15 0 8 -1 15 -2 15 -2
0 -8 -7 -15 -15z"/>
</g>
</svg>
